<?xml version="1.0" encoding="UTF-8"?>
<svg id="Calque_1" data-name="Calque 1" xmlns="http://www.w3.org/2000/svg" viewBox="0 0 406.25 351.15">
  <defs>
    <style>
      .cls-1 {
        fill: none;
      }

      .cls-2 {
        fill: #1d1d1b;
      }
    </style>
  </defs>
  <g>
    <path class="cls-2" d="M13.37,345.18c-1.4-.3-2.62-.68-3.66-1.13-1.04-.45-1.91-1-2.59-1.65s-1.19-1.42-1.52-2.32c-.33-.9-.49-1.93-.49-3.08l.04-3.91c0-1.37-.3-2.38-.9-3.04-.6-.66-1.47-1-2.59-1.03H0v-5.18h1.73c1.12-.03,1.97-.36,2.55-1.01s.86-1.67.86-3.06l-.04-3.91c0-2.25.66-4.02,1.99-5.33,1.33-1.3,3.42-2.25,6.27-2.86l1.44,4.73c-.96.33-1.71.65-2.26.97-.55.32-.94.75-1.17,1.3-.23.55-.35,1.29-.35,2.22l.08,3.46c0,1.59-.49,2.92-1.46,3.99s-2.49,1.86-4.54,2.38l-.04-.62c2.08.58,3.61,1.4,4.59,2.47s1.46,2.38,1.46,3.95l-.08,3.46c0,.88.12,1.57.35,2.08.23.51.62.91,1.17,1.21.55.3,1.3.62,2.26.95l-1.44,4.98Z"/>
    <path class="cls-2" d="M19.63,325.52c0-10.41,7.16-20.74,20.89-20.74,7.99,0,13.57,3.62,17.65,9.73l-7.92,6.26c-2.04-3.24-4.83-5.88-9.05-5.88-6.26,0-9.88,4.22-9.88,10.63s3.62,10.63,9.88,10.63c4.22,0,7.01-2.64,9.05-5.88l7.92,6.26c-4.07,6.11-9.65,9.73-17.65,9.73-13.73,0-20.89-10.33-20.89-20.74Z"/>
    <path class="cls-2" d="M60.88,325.59c0-10.48,6.86-20.82,21.34-20.82s21.34,10.33,21.34,20.82-6.86,20.81-21.34,20.81-21.34-10.33-21.34-20.81ZM91.87,325.59c0-6.49-4-10.71-9.65-10.71s-9.65,4.22-9.65,10.71,4,10.71,9.65,10.71,9.65-4.22,9.65-10.71Z"/>
    <path class="cls-2" d="M138.17,341.2c-2.79,2.94-6.86,5.05-11.77,5.05-10.93,0-18.85-8.07-18.85-20.74s7.92-20.74,18.85-20.74c4.9,0,8.98,2.11,11.77,5.13v-18.17h11.54v53.54h-11.54v-4.07ZM138.17,331.1v-11.09c-1.66-3.32-5.28-5.13-8.9-5.13-5.73,0-10.03,3.77-10.03,10.63s4.3,10.63,10.03,10.63c3.62,0,7.24-1.81,8.9-5.05Z"/>
    <path class="cls-2" d="M155.81,325.67c0-12.52,8.6-20.89,20.21-20.89s19,7.69,19,19.23c0,1.43-.23,3.62-.38,4.75h-27.45c.91,4.53,4.07,7.77,10.63,7.77,4.53,0,8.15-2.64,10.1-5.13l6.11,7.62c-3.54,3.92-9.27,7.32-16.82,7.32-13.27,0-21.42-9.35-21.42-20.66ZM167.57,320.39h16.29c-.45-4.15-3.32-6.33-7.84-6.33-4.22,0-7.16,2.11-8.45,6.33Z"/>
    <path class="cls-2" d="M253.16,323.11c0-5.36-2.04-8.22-7.16-8.22-4.22,0-6.49,3.02-7.32,6.11v24.28h-11.54v-22.17c0-5.36-2.04-8.22-7.16-8.22-4.22,0-6.48,3.02-7.32,6.11v24.28h-11.54v-39.52h11.54v5.13c2.11-3.54,5.88-6.11,11.77-6.11,6.33,0,10.25,2.79,12.29,7.16,3.02-4.75,7.01-7.16,13.72-7.16,10.33,0,14.25,7.39,14.25,17.12v23.38h-11.54v-22.17Z"/>
    <path class="cls-2" d="M300.96,341.2c-2.79,2.94-6.86,5.05-11.77,5.05-10.93,0-18.85-8.07-18.85-20.74s7.92-20.74,18.85-20.74c4.9,0,8.98,2.11,11.77,5.13v-4.15h11.54v39.52h-11.54v-4.07ZM300.96,331.1v-11.09c-1.66-3.32-5.28-5.13-8.9-5.13-5.73,0-10.03,3.77-10.03,10.63s4.3,10.63,10.03,10.63c3.62,0,7.24-1.81,8.9-5.05Z"/>
    <path class="cls-2" d="M323.73,329.29v-14.4h-6.41v-9.13h6.79v-9.95h11.16v9.95h8.67v9.13h-8.67v15.08c0,4.53,2.26,6.18,6.48,6.18h2.19v9.13c-1.51.3-3.47.53-5.05.53-10.03,0-15.16-4.98-15.16-16.51Z"/>
    <path class="cls-2" d="M347.33,325.67c0-12.52,8.6-20.89,20.21-20.89s19,7.69,19,19.23c0,1.43-.23,3.62-.38,4.75h-27.45c.91,4.53,4.07,7.77,10.63,7.77,4.53,0,8.15-2.64,10.1-5.13l6.11,7.62c-3.54,3.92-9.27,7.32-16.82,7.32-13.27,0-21.42-9.35-21.42-20.66ZM359.1,320.39h16.29c-.45-4.15-3.32-6.33-7.84-6.33-4.22,0-7.16,2.11-8.45,6.33Z"/>
    <path class="cls-2" d="M392.88,345.18l-1.48-4.73c.99-.33,1.75-.65,2.28-.97.53-.32.92-.75,1.15-1.3.23-.55.35-1.29.35-2.22l-.08-3.46c0-1.59.49-2.92,1.46-3.99.97-1.07,2.5-1.86,4.59-2.38v.62c-2.08-.58-3.61-1.4-4.59-2.47-.97-1.07-1.46-2.38-1.46-3.95l.08-3.46c0-.88-.11-1.57-.33-2.08-.22-.51-.6-.91-1.15-1.21-.55-.3-1.32-.62-2.3-.95l1.48-4.98c1.4.27,2.62.64,3.66,1.11,1.04.47,1.9,1.02,2.57,1.67.67.64,1.18,1.42,1.52,2.32.34.9.51,1.93.51,3.08l-.04,3.91c0,1.37.29,2.38.89,3.04.59.66,1.46,1,2.61,1.03h1.65v5.18h-1.73c-1.15.03-2.01.36-2.57,1.01-.56.65-.84,1.67-.84,3.06l.04,3.91c0,2.25-.67,4.02-2.01,5.33-1.34,1.3-3.43,2.25-6.25,2.86Z"/>
  </g>
  <g>
    <path class="cls-1" d="M310.05,66.23c-1.68.59-2.72,1.23-15.11,3.87-5.22,1.11-10.5,1.95-15.81,2.54-26.43,2.95-53.51-.35-78.51-9.39-.15-.05-.3-.11-.45-.16-.04,7.64.12,15.18.42,22.9l1.35,34.55c.18,4.61.39,9.17.65,13.71.1,1.73.23,3.47.34,5.2,8.12,3.74,32.75,14.04,55.68,13.11,27.65-1.12,41.71-7.19,47.57-10.64,1.34-11.06,2.56-22.09,3.32-33.36l2.56-37.79c.12-1.84.21-3.57.26-5.28l-2.28.75ZM245.24,126.79c-6.22-.46-6.41-9.24-6.45-14.04-.04-5.97.86-11.62,3.99-16.75.52-.85,2-1.69,2.94-1.77,1.02-.09,2.4.79,3.15,1.78,2.2,2.9,2.46,6.42,2.75,9.94.43,5.14-.68,17.97-6.39,20.83ZM279.19,111.31c-.41,4.96-1.05,9.51-3.81,13.69-.86,1.31-2.92,2.51-4.45,1.56-7.16-4.42-5.34-31.73,2.81-31.64,1.19.01,2.76,1.19,3.41,2.43,2.29,4.36,2.44,9.17,2.04,13.96Z"/>
    <path class="cls-1" d="M257.27,163.83c-33.18,0-47.45-6.79-53.31-11.38.1,1.06.17,2.11.28,3.18.34,3.49,1.73,6.17,4.9,7.91,4.99,2.75,10.26,4.71,16.03,6.11,18.18,4.42,37.07,5,55.45,1.44,6.88-1.33,13.11-3.49,18.99-6.87,2.63-1.51,4.27-3.63,4.66-6.73.17-1.38.34-2.75.52-4.13-6.47,3.63-22.04,10.47-47.51,10.47Z"/>
    <path d="M248.87,96.01c-.76-.99-2.13-1.88-3.15-1.78-.94.08-2.42.93-2.94,1.77-3.13,5.13-4.03,10.78-3.99,16.75.03,4.8.23,13.57,6.45,14.04,5.71-2.86,6.81-15.69,6.39-20.83-.29-3.52-.55-7.04-2.75-9.94Z"/>
    <path d="M273.74,94.92c-8.15-.09-9.97,27.22-2.81,31.64,1.54.95,3.59-.25,4.45-1.56,2.76-4.18,3.4-8.73,3.81-13.69.4-4.8.24-9.6-2.04-13.96-.65-1.24-2.22-2.42-3.41-2.43Z"/>
    <path d="M371.32,47.28c-2.52-2.37-5.54-3.71-9.22-3.8-5.18-5.89-13.57-7.36-20.5-3.7-2.4.08-5.22-.38-7.51-.07-8.72,1.17-11.98,10.92-10.01,18.85.2.82.21,2.35-.27,3.01-4.44,6.09-3.4,13.94,2.12,18.96,4.26,3.87-7.17,6.01,3.34,16.79-.85,6.21-8.07,16.31-14.54,17.1l1.86-23.24.61-12.22.54-16.12c.55-.58,1.09-1.18,1.65-1.78,2.94-3.14,3.64-9.29,3.28-13.42-.43-4.94-2.55-9.76-6.12-13.23-1.39-1.35-3.01-2.57-3.75-4.36-.74-1.81-.43-3.87-.82-5.79-.75-3.77-4.04-6.49-7.35-8.46-7.12-4.22-15.24-6.44-23.38-7.93-13.68-2.49-27.69-3.01-41.54-1.89-9.74.79-19.5,2.41-28.54,6.11-4.74,1.94-9.73,5.07-10.69,10.1-.43,2.27.02,4.75-1.03,6.81-1.18,2.31-3.88,3.36-5.72,5.19-3.1,3.09-3.4,7.94-3.51,12.32-.1,4.24-.08,8.87,2.61,12.15.52.63,1.12,1.18,1.77,1.66v11.59s.91,33.29.91,33.29c.09,3.27.1,6.03.02,9.61-5.36,0-10-.2-15.22-.8-.91-.1-1.89-1.3-1.73-2.13.91-4.89,1.38-9.32,1.91-14.16l2.06-18.65c.15-1.06,2.28-2.28,3.05-3.1,1.44-1.54,3.04-4.13,2.94-6.32l-.53-11.32c-.35-7.53-5.48-8.46-9.32-12.27-.18-2.13.15-4.46-.18-6.53-1.45-9.1-20.55-14.84-28.51-16.36-19.94-3.81-40.37-3.75-60.3.09-6.48,1.25-12.4,3.28-17.75,6.62-4.27,2.67-6.32,6.83-5.61,11.73.33,2.24-.68,3.61-2.64,4.62-3.06,1.59-6.16,4.17-6.49,7.81l-.93,10.32c-1.1,12.2,9.48,10.52,8.34,14.99-2.69.9-5.69,1.58-7.44,3.77-5.76,7.23.53,15.18-1.98,18.38-5.35,6.84-7.54,15.37-5.44,23.97,1.18,4.83-5.94,5.79-3.08,15.92-1.68,6.67-2.63,13.98-.2,20.73,3.4,9.47,14.66,14.22,23.89,10.89,3.58-1.29,5.66-3.96,8.17-6.73,3.65,1.76,7.22,3.59,10.91,5.13,2.96,1.24,5.84,1.63,8.95,3.25-3.39,1.98-6.64,2.54-10.05,3.59-2.26.69-3.85.23-5.75-.77-4.12-2.16-8.73-.21-12.85.25-7.53.83-13.57,4.48-16,12-3.6,11.14-.72,33.52,9.79,42.29-3.21,1.24-10.55,3.44-10.57,7.21-.04,7.4,24.61,10.11,30.38,10.68,19.24,1.9,38.31,2.16,57.56.59,9.44-.77,18.2-2.27,27.3-4.85,2.1-.59,8.47-3.39,8.64-6.02.22-3.51-4.08-3.09-1.59-5.95,4-4.58,7.23-9.58,9.7-15.09,2.77-6.18,3.42-12.27,2.62-19.05-1.57-13.28-14.4-22.27-27.5-18.89-9.87,2.55-10.23,5.34-18.16,11.66l-5.91-10.61,3.96-3.1c1.7-1.33,3.23-2.47,5.48-2.98,7.85-1.77,15.25-4.53,21.8-9.01,3.4-2.33,5.35-5.16,5.88-9.24l3.01-23.38,10.1,1.13,10.72.48c.42,7.66.78,14.61,1.81,21.81.75,5.2,3.59,9.13,8.19,11.55,4.99,2.62,10.19,4.26,15.68,5.89.37.11.9.4,1.14.58,1.09.82-7.59,11.13-8.59,12.26-2.98,3.33-7.27,4.76-11.41,5.59-12.09,2.41-12.65,16.83-8.64,26.54,1.71,4.14,4.23,7.81,6.76,11.7-3.55,1.67-11,3.03-10.74,7.54.09,1.63,1.27,3.05,2.82,3.85,4.43,2.29,9,3.86,14,4.81,20.93,3.97,42.22,3.69,63.64,3.28,13.2-.25,25.87-1.87,38.64-4.8,3.17-.73,13.71-3.81,11.71-8.34-.93-2.09-2.79-2.96-5.03-4.19l3.28-4.22c6.09-7.84,9.86-17,9.65-27.03-.17-8.31-4.12-16.04-11.37-20.18-6-3.43-13.16-3.27-19.52-.67-2.39.98-4.49,2.32-6.96,3.51l-4.98-9.57c7.08-2.56,20.63-6.4,22.19-14.21,1.66-8.33,2.51-16.36,3.42-24.83.1-.91.95-1.81,1.97-1.96,8.91-1.38,17.42-5.21,23.25-12.23,4.76-5.72,7.2-12.6,9.33-19.64.38-1.26,1.22-2.54,2.56-2.76,6.34-1.06,10.44-6.4,10.42-13.03,10.34-3.55,16.74-13.02,17.15-23.81.24-6.12-1.6-11.55-6.05-15.73ZM150.79,219.41c3.07-9.31,11.95-21.33,21.94-23.4,4.3-.89,8.08,1.22,9.19,5.59,3.25,12.88-10.78,34.01-24.16,36.28-4.23.72-7.35-1.71-8.1-5.6-.83-4.27-.51-8.79,1.14-12.86ZM347.72,43.94c2.8-.71,5.46-.2,7.42,1.83-5.7,6.22-5.75,4.99-8.12,13.36l-5.93-3.62c-1.05-4.07,2.06-10.41,6.63-11.56ZM330.58,48.58c1.22-1.85,3.72-3.22,6.45-3.14-1.14,3.41-1.89,5.69-1.94,9.57-1.71.71-3.68,1.18-5.63,1.37-.77-2.88-.49-5.36,1.12-7.79ZM222.94,14.26c21.86-4.9,49.77-4.47,71.2,2.87,3.6,1.23,13.12,5.18,12.6,9.48-.6,4.98-12.75,8.26-17.69,9.17-19.98,3.65-40.03,3.3-59.76-.16-5.3-.93-23.62-5.5-23.49-11.67.1-4.82,12.79-8.71,17.14-9.69ZM89.15,29.17c21.86-4.9,49.77-4.47,71.2,2.87,3.6,1.23,13.12,5.18,12.6,9.48-.6,4.98-12.75,8.26-17.69,9.17-19.98,3.65-40.03,3.3-59.76-.16-5.3-.93-23.62-5.5-23.49-11.67.1-4.82,12.79-8.71,17.14-9.69ZM61.16,88.52c.7-2.51,3.45-3.56,5.74-2.44,2.01.99,3.29,3.23,3.51,5.39l-8.77,4.21c-1.26-2-1.12-4.86-.48-7.16ZM52.3,139.68c-.93-2.05-1.08-4.34.79-6.14,4.25,6.06,10.35,9.36,17.36,11.21-2.82,6.2-14.94,2.05-18.15-5.07ZM77.16,138.89c-4.6.99-8.92-.34-12.79-2.79-10.14-6.43-12.93-21.11-4.6-30.64,9.38-10.73,26.53-12.02,27.79-4.61.44,2.61-.75,5.79-3.67,6.26-3.85.63-8.58-2.21-10.4,1.06-.55.99-.55,3.94.88,4.15l8,1.14c1.79.25,3.65,1.55,4.22,2.92.81,1.91.44,4.07-.9,5.71-4.79,5.85-10.87-.24-15.3,1.24-.82.27-1.31,2.35-1.06,3.15,1.17,3.71,8.6,3.4,12.39,3.96,1.42,3.61-.64,7.61-4.57,8.45ZM78.76,201.33c-5.87-2.51-9.56-9.18-8.05-15.38.68-2.8,3.57-4.18,6.08-3.01-2.03,7.26,1.07,13.44,7.22,17.42-1.44,1.48-3.42,1.75-5.24.97ZM106.91,227.33c-.27-8.95-6.94-14.88-14.99-15.58-2.33-.2-4.7.09-6.92-.31-1.25-.22-1.83-3.84-.79-4.47,5.75-2.72,5.65-1.64,8.73-7.45l9.78-2.36,13.63-4.39,7.38,17.65-.32,6.92c-.21,4.58,2.45,7.21,6.27,9.96h-22.79ZM132.62,221.47c-3.75,1.59-4.51-6.44-2.78-9.68,1.49-2.78,3.25-5.65,5.96-7.5-1.7,6.05-3.71,11-3.17,17.18ZM174.21,101.14l-3.53,26.56-3.58,29.68c-.19,1.57-1.08,3.03-2.34,3.85-7.2,4.75-14.84,7.84-23.44,9.42-20.55,3.78-42.1.68-60.56-9.75l-1.76-16.45c5.21-1.42,8.54-5.24,8.78-10.58l.26-5.69c.81-.91,2.26-2.14,2.99-3.09,3.32-4.33,2.21-10.12-1.2-14.18,1.61-2.51,3.5-4.73,3.88-7.58.74-5.47-2.9-10.4-8.09-12.02-2.92-.92-6.04-.99-9.02-1.21-.94-2.42-2.01-4.92-3.64-6.67-.97-1.04-1.74-1.5-1.77-3.31,3.93.66,6.91,1.99,10.62,2.95,25.87,6.7,59.43,8.05,85.21.63,3.1-.89,5.58-1.9,9.26-2.56-.37,6.88-1.14,13.19-2.05,20ZM196.09,129.62c-7.63.32-11.64-.22-19.46-1.44l1.22-8.43,7.9.35,10.22.53.85,4.48c.26,1.39.17,3.6-.74,4.5ZM224.72,209.47c-5.91,1.33-12.29-1.62-15.11-6.96-1.44-2.72-.4-5.81,2.5-6.83,4.03,7.14,6.95,9.62,16.2,9.96.29,1.97-1.73,3.41-3.58,3.83ZM225.95,199.04l-8.02-5.2c.55-2.19,2.87-3.53,4.26-5.2,3.1-3.72,5.52-7.44,8.28-11.63,2.73.07,5.49.44,8.31.96l1.31.24c.3.06.17,1.4.01,1.71l-3.37,6.74c-.42.84-9.01,13.63-10.77,12.36ZM252.54,226.92c-.18-3.74-.35-7.17-1.74-10.34-2.68-6.08-8.56-9.19-15.36-9.12l-2.73-5.92c5.99-5.9,11.48-14.92,13.83-22.56l20.1.03,6.17,15.19c.65,1.6,1.86,3.03,1.91,4.85-2.37,4.68-2.09,9.78.09,14.35-.07,4.61.4,8.36,2.08,13.68l-24.35-.17ZM299,207.74c4.2-5.76,10.84-13.27,18.58-12.73,3.35.24,6.15,2.41,6.76,5.79,2.25,12.39-9.86,33.62-24.19,35.99-4.56.75-7.81-2.13-8.13-6.52-.6-8.05,2.2-15.97,6.98-22.52ZM287.63,189.13c-2.35,2.4-4.2,3.99-7.6,6.22l-4.08-8.24c-1.3-2.62-2.12-5.67-3.14-8.78l6.47-1.29c1.27-.25,2.36.4,2.96,1.57l5.39,10.52ZM299.6,164.22c-5.88,3.38-12.11,5.54-18.99,6.87-18.38,3.56-37.27,2.99-55.45-1.44-5.77-1.4-11.03-3.36-16.03-6.11-3.17-1.74-4.55-4.42-4.9-7.91-.1-1.07-.18-2.12-.28-3.18,5.86,4.59,20.12,11.38,53.31,11.38,25.47,0,41.04-6.84,47.51-10.47-.17,1.38-.34,2.75-.52,4.13-.39,3.1-2.03,5.21-4.66,6.73ZM309.51,108.55c-.76,11.28-1.98,22.31-3.32,33.36-5.85,3.45-19.91,9.52-47.57,10.64-22.93.93-47.56-9.37-55.68-13.11-.11-1.73-.25-3.46-.34-5.2-.26-4.54-.47-9.1-.65-13.71l-1.35-34.55c-.3-7.72-.47-15.26-.42-22.9.15.05.3.11.45.16,25,9.04,52.08,12.35,78.51,9.39,5.31-.59,10.59-1.43,15.81-2.54,12.39-2.64,13.43-3.28,15.11-3.87l2.28-.75c-.05,1.71-.14,3.44-.26,5.28l-2.56,37.79ZM332.16,120.25c-5.25,4.52-11.14,7.71-18.7,8.61l.54-7.54c3.53-1.42,7.13-2.57,10.01-5.01,6.19-5.25,7.48-8.54,10.79-16.17l5.99.67c1.98,4.22-5.83,16-8.63,19.45ZM349.32,94.17c-7.24,2.68-18.02.15-18.56-4.66-.12-1.1.68-3.68,1.78-3.85l8.63,2.16c3.96.99,7.96.66,12.58.69.25,2.5-1.93,4.72-4.44,5.65ZM368.26,73.31c-7.12,11.41-25.89,12.28-37.17,4.36-3.71-2.61-5.24-8.5-2.75-12.41,2.78-4.37,9.07-5.1,13.28-2.84,1.68.9,2.2,2.92.77,4.54-2.1,2.38-5.9,2.1-4.94,5.61.39,1.44,2.07,2.11,3.68,1.78,3.65-.74,5.81-3.38,7.65-6.89l3.5,2.65c3.06,1.6,7.54,1,9.92-1.37,3.27-3.24,6.5-10.17,2.45-11.55-5-1.7-3.8,8.78-9.21,8.07-.99-.13-2.38-1.62-2.49-2.96-.38-4.71,2.35-9.14,6.25-11.66,2.17-1.4,4.82-1.23,6.85.11,3.52,2.32,4.92,6.13,5.29,10.14.43,4.65-.63,8.48-3.08,12.41Z"/>
    <path d="M127.88,104.89c-8.78-4-12.06,30.96-2.94,31.03,2.25.02,3.88-2.07,4.64-3.99,2.75-6.93,3.16-14.55,1.61-21.89-.43-2.01-1.52-4.33-3.32-5.16Z"/>
    <path d="M153.06,103.07c-2.09.42-3.8,2.3-4.53,4.37-2.73,7.72-3.18,16.29-.4,23.94.71,1.96,3.13,3.45,4.93,2.64,4.37-1.97,5.51-12.49,5.85-17.02.33-4.38-1.11-14.89-5.86-13.93Z"/>
    <path d="M84.12,42.56c3.55,1.94,7.3,3.02,11.46,3.68,17.82,2.81,47.28,4.09,64.54-.94,1.99-.58,4.19-1.86,5.36-3.46,3.97-5.38-11.98-9.1-15.1-9.69-15.34-2.93-30.8-3.47-46.37-2.22-5.34.43-20.76,2.61-23,7.55-.87,1.92,1.53,4.22,3.1,5.08Z"/>
    <path d="M217.91,27.65c3.55,1.94,7.3,3.02,11.46,3.68,17.82,2.81,47.28,4.09,64.54-.94,1.99-.58,4.19-1.86,5.36-3.46,3.97-5.38-11.98-9.1-15.1-9.69-15.34-2.93-30.8-3.47-46.37-2.22-5.34.43-20.76,2.61-23,7.55-.87,1.92,1.53,4.22,3.1,5.08Z"/>
  </g>
</svg>